# xmcd
#
# Track frame offsets: 
#        150
#        14950
#        25944
#        36566
#        47636
#        58016
#        67099
#        81329
#        94610
#        109839
#        124308
#        134844
#        148255
#        159014
#        172644
#        185516
#        193843
#        210666
#        228749
#        245435
#
# Disc length: 4436 seconds
#
# Revision: 2
# Processed by: cddbd v1.5.2PL0 Copyright (c) Steve Scherf et al.
# Submitted via: ExactAudioCopy v1.0b6
#
DISCID=2f115214
DTITLE=Otis Redding - Remember Me
DYEAR=1992
DGENRE=Soul
TTITLE0=Trick Or Treat
TTITLE1=Loving By The Pound (Take1)
TTITLE2=There Goes My Baby
TTITLE3=Remember Me
TTITLE4=Send Me Some Lovin'
TTITLE5=She's Alright
TTITLE6=Cupid
TTITLE7=The Boston Monkey
TTITLE8=Dont' Be Afraid Of Love
TTITLE9=Little Ol' Me
TTITLE10=Pounds And Hundreds (Lbs and 100s)
TTITLE11=You Got Good Lovin'
TTITLE12=Gone Again
TTITLE13=I'm Coming Home
TTITLE14=(Sittin' On) The Dock Of The Bay (Take1)
TTITLE15=Respect (Alternate)
TTITLE16=I've Got Dreams To Remember
TTITLE17=Try A Little Tenderness (Take 1)
TTITLE18=Stay In School
TTITLE19=Multimedia Track Incl.:Video, Biography And Pictures
EXTD=Otis Redding  'Remember Me'\nIncl. multimedia-track with video, b
EXTD=iography and pictures\n24 BIT Remastered\nLabel: Fantasy, Inc. - 
EXTD=Stax Records\nSCD24 8572-2
EXTT0=
EXTT1=
EXTT2=
EXTT3=
EXTT4=
EXTT5=
EXTT6=
EXTT7=
EXTT8=
EXTT9=
EXTT10=
EXTT11=
EXTT12=
EXTT13=
EXTT14=
EXTT15=
EXTT16=
EXTT17=
EXTT18=
EXTT19=
PLAYORDER=
